<?xml version="1.0" encoding="UTF-8" standalone="no"?>
<svg
   xmlns:dc="http://purl.org/dc/elements/1.1/"
   xmlns:cc="http://creativecommons.org/ns#"
   xmlns:rdf="http://www.w3.org/1999/02/22-rdf-syntax-ns#"
   xmlns:svg="http://www.w3.org/2000/svg"
   xmlns="http://www.w3.org/2000/svg"
   xmlns:sodipodi="http://sodipodi.sourceforge.net/DTD/sodipodi-0.dtd"
   xmlns:inkscape="http://www.inkscape.org/namespaces/inkscape"
   id="Layer_1"
   data-name="Layer 1"
   viewBox="0 0 1100 370"
   version="1.1"
   sodipodi:docname="DENK-svg.svg"
   inkscape:version="0.92.3 (2405546, 2018-03-11)"
   width="1100"
   height="370">
  <metadata
     id="metadata1487">
    <rdf:RDF>
      <cc:Work
         rdf:about="">
        <dc:format>image/svg+xml</dc:format>
        <dc:type
           rdf:resource="http://purl.org/dc/dcmitype/StillImage" />
        <dc:title>DENK-svg</dc:title>
      </cc:Work>
    </rdf:RDF>
  </metadata>
  <sodipodi:namedview
     pagecolor="#ffffff"
     bordercolor="#666666"
     borderopacity="1"
     objecttolerance="10"
     gridtolerance="10"
     guidetolerance="10"
     inkscape:pageopacity="0"
     inkscape:pageshadow="2"
     inkscape:window-width="1920"
     inkscape:window-height="991"
     id="namedview1485"
     showgrid="false"
     inkscape:zoom="0.47416667"
     inkscape:cx="607.06277"
     inkscape:cy="-187.44054"
     inkscape:window-x="-10"
     inkscape:window-y="-10"
     inkscape:window-maximized="1"
     inkscape:current-layer="Layer_1"
     inkscape:snap-page="true"
     fit-margin-top="0"
     fit-margin-left="0"
     fit-margin-right="0"
     fit-margin-bottom="0" />
  <defs
     id="defs1470">
    <style
       id="style1468">.cls-1{fill:#00b7b2;}.cls-2{fill:#fff;}</style>
  </defs>
  <title
     id="title1472">DENK-svg</title>
  <g
     id="g2036"
     transform="translate(-50,-15)">
    <path
       style="fill:#00b7b2;fill-opacity:1"
       id="path1476"
       d="m 103.74,93.37 a 33.56,33.56 0 0 1 3.68,-15.18 44.48,44.48 0 0 1 9.79,-13 51.41,51.41 0 0 1 13.71,-9 36.19,36.19 0 0 1 14.93,-3.43 H 185 q 38.19,0 66.58,12.73 28.39,12.73 47.25,33.78 a 143.89,143.89 0 0 1 28.4,47.5 158.78,158.78 0 0 1 9.55,54.35 160.8,160.8 0 0 1 -9.06,53.38 131.67,131.67 0 0 1 -27.42,46 q -18.36,20.1 -45.54,32.57 -27.18,12.47 -63.41,12.49 h -45.5 q -19.09,0 -30.6,-11 -11.51,-11 -11.51,-29.66 z m 88.14,170.89 q 16.17,0 28.15,-5.88 a 65.41,65.41 0 0 0 20.32,-15.18 61.88,61.88 0 0 0 12.48,-21.29 74.76,74.76 0 0 0 4.17,-24.73 69.59,69.59 0 0 0 -3.92,-23 54.84,54.84 0 0 0 -12,-19.84 60.94,60.94 0 0 0 -20.55,-14 Q 208,135 191.38,135 h -6.84 v 129.26 z"
       class="cls-2"
       inkscape:connector-curvature="0" />
    <path
       style="fill:#00b7b2;fill-opacity:1"
       id="path1478"
       d="m 404.38,345.54 q -40.15,0 -40.14,-40.64 V 93.37 q 0,-40.64 40.14,-40.64 h 137.11 q 19.1,0 29.87,12 A 41.48,41.48 0 0 1 582.13,93.37 41.48,41.48 0 0 1 571.36,122 q -10.79,12 -29.87,12 h -96.95 v 24.48 h 77.37 q 19.08,0 29.86,12 a 43.45,43.45 0 0 1 0,57.29 q -10.77,12 -29.86,12 h -77.37 v 24.48 h 96.95 q 19.1,0 29.87,12 a 43.48,43.48 0 0 1 0,57.29 q -10.79,12 -29.87,12 z"
       class="cls-2"
       inkscape:connector-curvature="0" />
    <path
       style="fill:#00b7b2;fill-opacity:1"
       id="path1480"
       d="m 695.72,304.9 q 0,19.61 -12,29.88 -12,10.27 -28.64,10.27 a 41.9,41.9 0 0 1 -28.15,-10.27 q -12,-10.29 -12,-29.88 V 93.37 q 0,-19.58 12,-29.87 a 41.85,41.85 0 0 1 28.15,-10.28 h 2 q 21.56,0 30.84,18.12 l 73.45,111.15 V 93.37 q 0,-19.58 12,-29.87 a 41.9,41.9 0 0 1 28.16,-10.28 q 16.65,0 28.65,10.28 12,10.28 12,29.87 V 304.9 q 0,19.61 -12,29.88 -12,10.27 -28.65,10.27 a 45.1,45.1 0 0 1 -14.2,-1.95 38.26,38.26 0 0 1 -10,-4.9 34.19,34.19 0 0 1 -6.62,-5.87 c -1.64,-2 -2.94,-3.59 -3.91,-4.9 l -71,-105.76 z"
       class="cls-2"
       inkscape:connector-curvature="0" />
    <path
       style="fill:#00b7b2;fill-opacity:1"
       id="path1482"
       d="m 956.7,304.9 q 0,19.61 -12,29.88 a 41.88,41.88 0 0 1 -28.15,10.27 q -16.65,0 -28.64,-10.27 -11.99,-10.27 -12,-29.88 V 93.37 q 0,-19.58 12,-29.87 12,-10.29 28.64,-10.28 A 41.84,41.84 0 0 1 944.7,63.5 q 12,10.29 12,29.87 v 67.09 l 65.62,-93.53 a 55.22,55.22 0 0 1 14.2,-11.26 35.92,35.92 0 0 1 17.14,-3.92 38.33,38.33 0 0 1 15.91,3.43 51,51 0 0 1 13.43,8.82 39.47,39.47 0 0 1 9.3,13 37.5,37.5 0 0 1 -5.87,40.39 l -71.43,80.28 71.5,81.77 a 37.82,37.82 0 0 1 9.79,25.46 34.49,34.49 0 0 1 -3.67,15.67 43.26,43.26 0 0 1 -9.62,12.73 50.3,50.3 0 0 1 -13.47,8.82 37.06,37.06 0 0 1 -15.42,3.43 q -18.62,0 -31.34,-15.67 L 956.7,237.82 Z"
       class="cls-2"
       inkscape:connector-curvature="0" />
  </g>
</svg>
