<svg xmlns="http://www.w3.org/2000/svg" width="392.08" height="179.78" viewBox="0 0 392.08 179.78"><path d="m160.58 0h-141.38c-10.6 0-19.2 8.59-19.2 19.2v141.38c0 10.6 8.59 19.2 19.2 19.2h141.38c10.6 0 19.2-8.59 19.2-19.2v-141.38c0-10.6-8.59-19.2-19.2-19.2zm-4.37 146.68c0 1.63-1.16 2.56-3.03 2.56h-57.25c-1.86 0-2.79-0.93-2.79-2.56v-5.66c0-2.33 0.47-3.96 3.72-3.96h1.16c5.35 0 6.51-4.42 6.51-15.36v-47.94c0-12.33-0.47-17.69-3.03-21.88-2.09-3.96-6.28-6.52-13.5-6.52-9.77 0-12.8 4.65-12.8 13.26v63.07c0 10.94 1.16 15.36 6.52 15.36h0.93c3.26 0 3.72 1.63 3.72 3.96v5.66c0 1.63-0.93 2.56-2.79 2.56h-57.01c-1.86 0-3.03-0.93-3.03-2.56v-5.66c0-2.33 1.16-3.96 3.72-3.96h2.1c6.75 0 9.08-4.19 9.08-15.36v-63.53c0-10.94-2.1-16.06-8.38-16.06h-2.79c-2.56 0-3.72-2.33-3.72-3.96v-3.9c0-1.86 1.16-3.72 3.72-3.72h45.57c0.67 0 1.21 0.54 1.21 1.21v0.83c0 1.4 0.7 1.86 1.86 1.86 4.65 0 12.1-6.52 29.79-6.52 11.87 0 22.11 3.03 28.39 10.94 6.52 8.15 7.22 19.08 7.22 37.7v45.15c0 11.17 2.09 15.36 8.84 15.36h2.33c3.03 0 3.72 1.63 3.72 3.96v5.66zm97.87-69.23-10.23-6.51c-8.37-5.12-14.88-7.91-14.88-16.74 0-9.3 7.68-12.32 16.74-12.32 11.39 0 14.65 5.46 16.97 14.3 0.7 3.02 1.16 4.42 3.95 4.42h6.74c1.39 0 3.49-0.7 3.49-4.42v-17.32c0-9.3-22.55-10.93-33.71-10.93-23.49 0-44.18 7.44-44.18 34.18 0 23.95 16.51 31.86 24.65 36.74l10.93 6.74c10.23 6.04 14.65 9.53 14.65 18.14 0 11.86-9.77 14.19-17.9 14.19-15.58 0-17.67-7.55-19.3-14.3-0.7-3.02-1.16-4.42-3.95-4.42h-6.74c-2.09 0-3.49 0.93-3.49 4.19v15.92c0 9.77 19.76 12.56 34.88 12.56 26.28 0 47.44-8.14 47.44-36.04 0-25.11-16.97-33.02-26.04-38.37zm94.29-36.04c9.3 0 9.76 11.39 10.23 18.6 0.23 4.42 0.7 5.81 5.58 5.81h23.25c3.95 0 4.65-1.4 4.65-5.81v-14.18c0-14.88-30.46-17.9-44.18-17.9-36.41 0-51.83 26.97-51.83 62.32 0 43.71 24.01 61.62 54.85 61.62 12.55 0 21.86-2.32 27.67-4.88 6.51-2.79 13.02-7.21 13.02-11.63 0-0.7-0.23-1.4-0.7-2.09l-2.56-3.49c-0.7-1.16-1.63-1.63-2.56-1.63-3.95 0-10.7 6.51-23.72 6.51-18.6 0-30.46-14.88-30.46-52.32 0-24.65 5.11-40.92 16.74-40.92z" fill="#13123a"/></svg>
